<?xml version="1.0" encoding="UTF-8" standalone="no"?>
<!-- Created with Inkscape (http://www.inkscape.org/) -->

<svg
   xmlns:dc="http://purl.org/dc/elements/1.1/"
   xmlns:cc="http://creativecommons.org/ns#"
   xmlns:rdf="http://www.w3.org/1999/02/22-rdf-syntax-ns#"
   xmlns:svg="http://www.w3.org/2000/svg"
   xmlns="http://www.w3.org/2000/svg"
   xmlns:sodipodi="http://sodipodi.sourceforge.net/DTD/sodipodi-0.dtd"
   xmlns:inkscape="http://www.inkscape.org/namespaces/inkscape"
   width="100"
   height="100"
   id="svg2"
   version="1.1"
   inkscape:version="0.48.4 r9939"
   sodipodi:docname="marker.svg"
   inkscape:export-filename="/home/winde/Product/website/public/images/marker.png"
   inkscape:export-xdpi="29.699993"
   inkscape:export-ydpi="29.699993">
  <defs
     id="defs4" />
  <sodipodi:namedview
     id="base"
     pagecolor="#ffffff"
     bordercolor="#666666"
     borderopacity="1.0"
     inkscape:pageopacity="0.0"
     inkscape:pageshadow="2"
     inkscape:zoom="5.38"
     inkscape:cx="37.57679"
     inkscape:cy="54.635072"
     inkscape:document-units="px"
     inkscape:current-layer="layer1"
     showgrid="false"
     showguides="true"
     inkscape:guide-bbox="true"
     inkscape:window-width="1280"
     inkscape:window-height="753"
     inkscape:window-x="0"
     inkscape:window-y="25"
     inkscape:window-maximized="1" />
  <metadata
     id="metadata7">
    <rdf:RDF>
      <cc:Work
         rdf:about="">
        <dc:format>image/svg+xml</dc:format>
        <dc:type
           rdf:resource="http://purl.org/dc/dcmitype/StillImage" />
        <dc:title></dc:title>
      </cc:Work>
    </rdf:RDF>
  </metadata>
  <g
     inkscape:label="Layer 1"
     inkscape:groupmode="layer"
     id="layer1"
     transform="translate(0,-952.36218)">
    <g
       id="g3775"
       transform="translate(0,-2e-5)">
      <path
         style="fill:#ff0000;fill-opacity:1;stroke:none"
         inkscape:connector-curvature="0"
         d="M 50.00004,952.36218 C 29.290839,952.36218 12.5,969.153 12.5,989.86225 c 0,8.43511 2.783212,16.21085 7.483019,22.47925 l 30.017021,40.0207 30.017209,-40.0207 c 4.699619,-6.2684 7.482819,-14.04414 7.482819,-22.47925 0,-20.70925 -16.790838,-37.50007 -37.500028,-37.50007 z m 0,62.49992 c -13.806267,0 -25.000026,-11.1937 -25.000026,-24.99985 0,-13.80617 11.193958,-25.00005 25.000026,-25.00005 13.806068,0 25.000015,11.19388 25.000015,25.00005 0,13.80615 -11.19376,24.99985 -25.000015,24.99985 z"
         id="path4106" />
      <path
         transform="matrix(0.78610955,0,0,0.80679663,80.473224,946.49017)"
         d="m 5.5558395,53.785522 c 0,23.849877 -19.8429375,43.184021 -44.3204425,43.184021 -24.477504,0 -44.320442,-19.334144 -44.320442,-43.184021 0,-23.849876 19.842938,-43.184021 44.320442,-43.184021 24.477505,0 44.3204425,19.334145 44.3204425,43.184021 z"
         sodipodi:ry="43.184021"
         sodipodi:rx="44.320442"
         sodipodi:cy="53.785522"
         sodipodi:cx="-38.764603"
         id="path3006"
         style="fill:#ffffff;fill-opacity:1;stroke:none"
         sodipodi:type="arc" />
    </g>
    <g
       id="g4132"
       transform="matrix(6.0139137,0,0,6.0139137,120.55243,-4985.9188)">
      <path
         id="path3021"
         style="fill:none;stroke:#000000;stroke-width:0.34040871;stroke-linecap:butt;stroke-linejoin:miter;stroke-miterlimit:4;stroke-opacity:1;stroke-dasharray:none"
         d="m -13.0684,993.72937 c 0,0.9609 -0.779476,1.74034 -1.740911,1.74034 -0.960974,0 -1.74045,-0.77944 -1.74045,-1.74034 0,-0.96151 0.779476,-1.74095 1.74045,-1.74095 0.961435,0 1.740911,0.77944 1.740911,1.74095 z"
         inkscape:connector-curvature="0" />
      <path
         id="path3025"
         style="fill:#000000;fill-opacity:1;fill-rule:nonzero;stroke:#000000;stroke-width:0.02174126;stroke-linecap:butt;stroke-linejoin:miter;stroke-miterlimit:4;stroke-opacity:1;stroke-dasharray:none"
         d="m -14.61693,993.67887 c 0,0.10709 -0.08711,0.19361 -0.193665,0.19361 -0.106557,0 -0.193059,-0.0865 -0.193059,-0.19361 0,-0.10663 0.0865,-0.19299 0.193059,-0.19299 0.106558,0 0.193665,0.0864 0.193665,0.19299 z"
         inkscape:connector-curvature="0" />
      <path
         id="path3029"
         style="fill:none;stroke:#000000;stroke-width:0.34035203;stroke-linecap:butt;stroke-linejoin:round;stroke-miterlimit:4;stroke-opacity:1;stroke-dasharray:none"
         d="m -14.80872,993.69399 c 0.996748,-0.66065 1.036344,-1.74938 1.540018,-3.1901"
         inkscape:connector-curvature="0" />
      <path
         id="path3033"
         style="fill:none;stroke:#000000;stroke-width:0.34035206;stroke-linecap:butt;stroke-linejoin:miter;stroke-miterlimit:4;stroke-opacity:1;stroke-dasharray:none"
         d="m -6.9132773,993.7459 c 0,0.96137 -0.7794756,1.74081 -1.740911,1.74081 -0.961589,0 -1.7410647,-0.77944 -1.7410647,-1.74081 0,-0.96152 0.7794757,-1.74096 1.7410647,-1.74096 0.9614354,0 1.740911,0.77944 1.740911,1.74096 z"
         inkscape:connector-curvature="0" />
      <path
         id="path3037"
         style="fill:#000000;fill-opacity:1;fill-rule:nonzero;stroke:#000000;stroke-width:0.02174126;stroke-linecap:butt;stroke-linejoin:miter;stroke-miterlimit:4;stroke-opacity:1;stroke-dasharray:none"
         d="m -8.4264587,993.69399 c 0,0.10726 -0.087106,0.19377 -0.1936637,0.19377 -0.1065574,0 -0.1930597,-0.0865 -0.1930597,-0.19377 0,-0.10647 0.086502,-0.19299 0.1930597,-0.19299 0.1065573,0 0.1936637,0.0865 0.1936637,0.19299 z"
         inkscape:connector-curvature="0" />
      <path
         id="path3041"
         style="fill:none;stroke:#000000;stroke-width:0.34035203;stroke-linecap:butt;stroke-linejoin:miter;stroke-miterlimit:4;stroke-opacity:1;stroke-dasharray:none"
         d="m -8.585979,993.7459 c -0.154641,-0.22354 -1.873775,-2.4236 -1.873775,-2.4236"
         inkscape:connector-curvature="0" />
      <path
         id="path3045"
         style="fill:none;stroke:#000000;stroke-width:0.34035203;stroke-linecap:butt;stroke-linejoin:miter;stroke-miterlimit:4;stroke-opacity:1;stroke-dasharray:none"
         d="m -10.373236,991.3563 -3.163437,-0.034"
         inkscape:connector-curvature="0" />
      <path
         id="path3049"
         style="fill:none;stroke:#000000;stroke-width:0.34035203;stroke-linecap:butt;stroke-linejoin:miter;stroke-miterlimit:4;stroke-opacity:1;stroke-dasharray:none"
         d="m -11.404748,994.27857 c 0.102886,-0.24054 1.117406,-3.48971 1.117406,-3.48971"
         inkscape:connector-curvature="0" />
      <path
         id="path3053"
         style="fill:#000000;fill-opacity:1;fill-rule:nonzero;stroke:#000000;stroke-width:0.03623544;stroke-linecap:butt;stroke-linejoin:miter;stroke-miterlimit:4;stroke-opacity:1;stroke-dasharray:none"
         d="m -11.032764,994.15994 c 0,0.17771 -0.144251,0.32206 -0.322088,0.32206 -0.177837,0 -0.322088,-0.14435 -0.322088,-0.32206 0,-0.17787 0.144251,-0.32222 0.322088,-0.32222 0.177837,0 0.322088,0.14435 0.322088,0.32222 z"
         inkscape:connector-curvature="0" />
      <path
         id="path3057"
         style="fill:#ffffff;fill-opacity:1;stroke:#000000;stroke-width:0.34035203;stroke-linecap:butt;stroke-linejoin:miter;stroke-miterlimit:4;stroke-opacity:1;stroke-dasharray:none"
         d="m -11.421895,994.20982 2.8187683,-0.51583"
         inkscape:connector-curvature="0" />
      <path
         id="path3061"
         style="fill:none;stroke:#000000;stroke-width:0.34035203;stroke-linecap:butt;stroke-linejoin:miter;stroke-miterlimit:4;stroke-opacity:1;stroke-dasharray:none"
         d="m -13.570813,991.68271 2.148918,2.47598"
         inkscape:connector-curvature="0" />
      <path
         id="path3065"
         style="fill:none;stroke:#000000;stroke-width:0.23824643;stroke-linecap:butt;stroke-linejoin:miter;stroke-miterlimit:4;stroke-opacity:1;stroke-dasharray:none"
         d="m -13.213985,990.61473 -0.202187,-0.39284 0.309438,-0.2753 0.635088,0"
         inkscape:connector-curvature="0" />
      <path
         id="path3069"
         style="fill:#000000;fill-opacity:1;fill-rule:nonzero;stroke:#000000;stroke-width:0.03403521;stroke-linecap:round;stroke-linejoin:round;stroke-miterlimit:4;stroke-opacity:1;stroke-dasharray:none"
         d="m -11.336001,990.65183 1.8566273,-0.0517 c 0.2887047,0.65519 -2.3169653,0.24179 -1.8566273,0.0517 z"
         inkscape:connector-curvature="0" />
      <path
         id="path3073"
         style="fill:none;stroke:#000000;stroke-width:0.17017601;stroke-linecap:butt;stroke-linejoin:miter;stroke-miterlimit:4;stroke-opacity:1;stroke-dasharray:none"
         d="m -11.323218,994.36571 0.154641,0.73922"
         inkscape:connector-curvature="0" />
      <path
         id="path3077"
         style="fill:none;stroke:#000000;stroke-width:0.17017601;stroke-linecap:butt;stroke-linejoin:miter;stroke-miterlimit:4;stroke-opacity:1;stroke-dasharray:none"
         d="m -11.404748,995.06658 0.454258,-0.0109"
         inkscape:connector-curvature="0" />
      <path
         id="path3081"
         style="fill:none;stroke:#000000;stroke-width:0.17017601;stroke-linecap:butt;stroke-linejoin:miter;stroke-miterlimit:4;stroke-opacity:1;stroke-dasharray:none"
         d="m -11.43764,994.012 -0.154641,-0.73938"
         inkscape:connector-curvature="0" />
      <path
         id="path3085"
         style="fill:none;stroke:#000000;stroke-width:0.17017601;stroke-linecap:butt;stroke-linejoin:miter;stroke-miterlimit:4;stroke-opacity:1;stroke-dasharray:none"
         d="m -11.356111,993.31159 -0.454257,0.0111"
         inkscape:connector-curvature="0" />
    </g>
  </g>
</svg>
